<?xml version="1.0" standalone="no"?><!DOCTYPE svg PUBLIC "-//W3C//DTD SVG 1.1//EN" "http://www.w3.org/Graphics/SVG/1.1/DTD/svg11.dtd">
<svg xmlns:xlink="http://www.w3.org/1999/xlink" xmlns="http://www.w3.org/2000/svg" version="1.1" width="20px" height="20px" viewBox="0 0 200 200">
	<defs>
		<style type="text/css"><![CDATA[ @font-face {
	font-family: "ifont";
	src: url("//at.alicdn.com/t/font_1442373896_4754455.eot?#iefix") format("embedded-opentype"), url("//at.alicdn.com/t/font_1442373896_4754455.woff") format("woff"), url("//at.alicdn.com/t/font_1442373896_4754455.ttf") format("truetype"), url("//at.alicdn.com/t/font_1442373896_4754455.svg#ifont") format("svg");
}

]]></style>
	</defs>
	<g class="transform-group">
		<g transform="scale(0.1953125, 0.1953125)">
			<path d="M510.610713 564.561341l4.088016 0.255501L769.1777 564.816842c13.286051 0 24.272593-10.731041 24.272593-24.272593 0-13.541552-10.986542-24.272593-24.272593-24.272593L526.962776 516.271657 526.962776 230.877068c0-12.264047-11.497544-22.484086-25.550097-22.484086s-25.550097 10.220039-25.550097 22.484086l0 312.733193c0 12.264047 11.497544 22.484086 25.550097 22.484086C504.734191 566.094347 507.800203 565.583345 510.610713 564.561341zM512 1.996101C229.671423 1.996101 0.998051 230.669474 0.998051 512.998051s228.673372 511.001949 511.001949 511.001949 511.001949-228.673372 511.001949-511.001949S794.328577 1.996101 512 1.996101zM512 978.089669C255.036881 978.089669 46.908382 769.96117 46.908382 512.998051S255.036881 47.906433 512 47.906433s465.091618 208.128499 465.091618 465.091618S768.963119 978.089669 512 978.089669z" fill="#272636"></path>
		</g>
	</g>
</svg>