<?xml version="1.0" standalone="no"?><!DOCTYPE svg PUBLIC "-//W3C//DTD SVG 1.1//EN" "http://www.w3.org/Graphics/SVG/1.1/DTD/svg11.dtd"><svg xmlns:xlink="http://www.w3.org/1999/xlink" xmlns="http://www.w3.org/2000/svg" version="1.1" width="20px" height="20px" viewBox="0 0 200 200"><defs><style type="text/css"><![CDATA[
@font-face {
  font-family: "ifont";
  src: url("//at.alicdn.com/t/font_1442373896_4754455.eot?#iefix") format("embedded-opentype"), url("//at.alicdn.com/t/font_1442373896_4754455.woff") format("woff"), url("//at.alicdn.com/t/font_1442373896_4754455.ttf") format("truetype"), url("//at.alicdn.com/t/font_1442373896_4754455.svg#ifont") format("svg");
}

]]></style></defs><g class="transform-group"><g transform="scale(0.1953125, 0.1953125)"><path d="M955.733333 75.5712 68.266667 75.5712c-18.8416 0-34.133333-15.291733-34.133333-34.133333s15.291733-34.133333 34.133333-34.133333l887.466667 0c18.8416 0 34.133333 15.291733 34.133333 34.133333S974.574933 75.5712 955.733333 75.5712zM595.012267 667.170133 68.266667 667.170133c-18.8416 0-34.133333-15.291733-34.133333-34.133333s15.291733-34.133333 34.133333-34.133333l526.7456 0c18.8416 0 34.133333 15.291733 34.133333 34.133333S613.853867 667.170133 595.012267 667.170133zM955.733333 962.9696 68.266667 962.9696c-18.8416 0-34.133333-15.291733-34.133333-34.133333s15.291733-34.133333 34.133333-34.133333l887.466667 0c18.8416 0 34.133333 15.291733 34.133333 34.133333S974.574933 962.9696 955.733333 962.9696zM804.522667 371.370667 68.266667 371.370667c-18.8416 0-34.133333-15.291733-34.133333-34.133333s15.291733-34.133333 34.133333-34.133333l736.256 0c18.8416 0 34.133333 15.291733 34.133333 34.133333S823.432533 371.370667 804.522667 371.370667z" fill="#272636"></path></g></g></svg>