<?xml version="1.0" standalone="no"?><!DOCTYPE svg PUBLIC "-//W3C//DTD SVG 1.1//EN" "http://www.w3.org/Graphics/SVG/1.1/DTD/svg11.dtd"><svg xmlns:xlink="http://www.w3.org/1999/xlink" xmlns="http://www.w3.org/2000/svg" version="1.1" width="20px" height="20px" viewBox="0 0 200 200"><defs><style type="text/css"><![CDATA[
@font-face {
  font-family: "ifont";
  src: url("//at.alicdn.com/t/font_1442373896_4754455.eot?#iefix") format("embedded-opentype"), url("//at.alicdn.com/t/font_1442373896_4754455.woff") format("woff"), url("//at.alicdn.com/t/font_1442373896_4754455.ttf") format("truetype"), url("//at.alicdn.com/t/font_1442373896_4754455.svg#ifont") format("svg");
}

]]></style></defs><g class="transform-group"><g transform="scale(0.1953125, 0.1953125)"><path d="M736 256c0-140.8-100.8-256-224-256-123.2 0-224 115.2-224 256 0 129.6 83.2 235.2 192 252.8 0 1.6 0 1.6 0 3.2l0 480c0 17.6 14.4 32 32 32s32-14.4 32-32L544 512c0-1.6 0-1.6 0-3.2C652.8 491.2 736 385.6 736 256zM512 448c-88 0-160-86.4-160-192 0-105.6 72-192 160-192 88 0 160 86.4 160 192C672 361.6 600 448 512 448z" fill="#272636"></path></g></g></svg>